<?xml version="1.0" encoding="UTF-8"?>
<svg xmlns="http://www.w3.org/2000/svg" xmlns:xlink="http://www.w3.org/1999/xlink" width="64px" height="64px" viewBox="0 0 64 64" version="1.1">
    
    <title>donut</title>
    <desc>Created with Sketch.</desc>
    <defs/>
    <g id="Color-Copy" stroke="none" stroke-width="1" fill="none" fill-rule="evenodd">
        <g id="Color" transform="translate(-736.000000, -231.000000)">
            <g id="6" transform="translate(736.000000, 231.000000)">
                <path d="M31.7188063,41.2192345 C26.761346,41.2192345 22.7435683,37.1932168 22.7435683,32.2278628 C22.7435683,27.2614912 26.761346,23.2354735 31.7188063,23.2354735 C36.6762667,23.2354735 40.6940444,27.2614912 40.6940444,32.2278628 C40.6940444,37.1932168 36.6762667,41.2192345 31.7188063,41.2192345 M31.7188063,1.97777434 C15.0422349,1.97777434 1.5240127,15.5213142 1.5240127,32.2278628 C1.5240127,48.9344115 15.0422349,62.4769336 31.7188063,62.4769336 C48.3953778,62.4769336 61.9136,48.9344115 61.9136,32.2278628 C61.9136,15.5213142 48.3953778,1.97777434 31.7188063,1.97777434" id="Fill-1" fill="#E4B382"/>
                <path d="M31.7188063,41.2192345 C26.761346,41.2192345 22.7435683,37.1932168 22.7435683,32.2278628 C22.7435683,27.2614912 26.761346,23.2354735 31.7188063,23.2354735 C36.6762667,23.2354735 40.6940444,27.2614912 40.6940444,32.2278628 C40.6940444,37.1932168 36.6762667,41.2192345 31.7188063,41.2192345 M31.7188063,1.97777434 C15.0422349,1.97777434 1.5240127,15.5213142 1.5240127,32.2278628 C1.5240127,40.1944115 4.60312381,47.4373761 9.62763175,52.839323 C9.66013968,52.6276416 9.68756825,52.4129071 9.68756825,52.1910487 L9.68756825,51.1265354 L9.68756825,49.7658717 C9.68756825,47.4017566 11.601473,45.4844115 13.961346,45.4844115 C16.321219,45.4844115 18.2351238,47.4017566 18.2351238,49.7658717 L18.2351238,51.1265354 L18.2351238,52.1910487 C18.2351238,54.5561814 20.1480127,56.4725088 22.5089016,56.4725088 C24.8687746,56.4725088 26.7816635,54.5561814 26.7816635,52.1910487 L26.7816635,50.9830398 C26.7816635,48.6179071 28.5949968,46.7015796 30.9558857,46.7015796 C33.3157587,46.7015796 35.2286476,48.6179071 35.2286476,50.9830398 L35.2286476,52.1910487 C35.2286476,54.5561814 37.1425524,56.4725088 39.5024254,56.4725088 C41.8633143,56.4725088 43.7762032,54.5561814 43.7762032,52.1910487 L43.7762032,51.1265354 L43.7762032,49.7658717 C43.7762032,47.4017566 45.6890921,45.4844115 48.049981,45.4844115 C50.409854,45.4844115 52.3237587,47.4017566 52.3237587,49.7658717 L52.3237587,51.1265354 L52.3237587,52.1910487 C52.3237587,52.8230398 52.4680127,53.4183938 52.7128381,53.9577743 C58.3834413,48.459146 61.9136,40.7582168 61.9136,32.2278628 C61.9136,15.5213142 48.3953778,1.97777434 31.7188063,1.97777434" id="Fill-3" fill="#EE64A4"/>
                <path d="M56.3977143,14.8084159 C57.3373968,17.7322655 57.8504127,20.8484602 57.8504127,24.0857611 C57.8504127,40.7923097 44.3311746,54.3358496 27.655619,54.3358496 C17.4552381,54.3358496 8.44342857,49.2636372 2.97701587,41.5057168 C6.88711111,53.671292 18.2740317,62.4774425 31.7191111,62.4774425 C48.3946667,62.4774425 61.9139048,48.9339027 61.9139048,32.227354 C61.9139048,25.7395221 59.8689524,19.7340796 56.3977143,14.8084159" id="Fill-5" fill="#010202" opacity="0.3"/>
                <path d="M11.2048762,52.2657478 C11.2048762,52.2403053 11.2109714,52.2168982 11.2109714,52.1924735 L11.2109714,49.7662788 C11.2109714,48.2478717 12.4452571,47.0113673 13.9609397,47.0113673 C15.4776381,47.0113673 16.7109079,48.2478717 16.7109079,49.7662788 L16.7109079,52.1924735 C16.7109079,55.3941549 19.3125587,57.9994646 22.5084952,57.9994646 C25.7054476,57.9994646 28.3050667,55.3941549 28.3050667,52.1924735 L28.3050667,50.9824292 C28.3050667,49.4375619 29.4692571,48.2275177 30.9554794,48.2275177 C32.4711619,48.2275177 33.7054476,49.4640221 33.7054476,50.9824292 L33.7054476,52.1924735 C33.7054476,55.3941549 36.3060825,57.9994646 39.5030349,57.9994646 C42.6989714,57.9994646 45.2996063,55.3941549 45.2996063,52.1924735 L45.2996063,49.7662788 C45.2996063,48.2478717 46.5338921,47.0113673 48.0495746,47.0113673 C49.5652571,47.0113673 50.7995429,48.2478717 50.7995429,49.7662788 L50.7995429,52.1924735 C50.7995429,52.6351726 50.8554159,53.0738009 50.958019,53.5053053 C45.8674794,58.1297301 39.1159873,60.950792 31.7194159,60.950792 C23.6848762,60.950792 16.4152889,57.6178274 11.2048762,52.2657478 M31.7194159,3.50473009 C47.5284317,3.50473009 60.3904,16.3898186 60.3904,32.2272522 C60.3904,32.9793319 60.350781,33.7242876 60.2949079,34.4661903 C60.2827175,34.615792 60.2735746,34.7664115 60.2603683,34.9160133 C60.1984,35.5876947 60.110019,36.2542876 60.0023365,36.915792 C59.9647492,37.1376504 59.9251302,37.3595088 59.8824635,37.5803496 C59.7737651,38.1675619 59.6477968,38.7486681 59.502527,39.3246858 C59.4263365,39.6228717 59.3399873,39.915969 59.254654,40.2100841 C59.150019,40.5734027 59.0372571,40.9336681 58.9184,41.2918982 C58.7528127,41.7895531 58.574019,42.2811018 58.382019,42.7675619 C58.270273,43.0494646 58.1575111,43.3313673 58.0376381,43.6091991 C57.8659556,44.0071195 57.686146,44.3999513 57.4971937,44.7887124 C57.3072254,45.1784912 57.110146,45.5662345 56.9018921,45.9478717 C56.718019,46.2847301 56.5250032,46.6175177 56.3279238,46.9462345 C56.1379556,47.2627389 55.9408762,47.5741549 55.7387175,47.8835354 C55.4888127,48.2651726 55.2317968,48.6407035 54.9646222,49.0101283 C54.710654,49.3622522 54.4485587,49.7092876 54.1773206,50.0512345 C54.0665905,50.1906593 53.9609397,50.3341549 53.8471619,50.4715442 L53.8471619,49.7662788 C53.8471619,46.5635796 51.246527,43.9582699 48.0495746,43.9582699 C44.8536381,43.9582699 42.2519873,46.5635796 42.2519873,49.7662788 L42.2519873,52.1924735 C42.2519873,53.7108805 41.0187175,54.9463673 39.5030349,54.9463673 C37.9873524,54.9463673 36.7530667,53.7108805 36.7530667,52.1924735 L36.7530667,50.9824292 C36.7530667,47.7807478 34.1514159,45.1744204 30.9554794,45.1744204 C27.7605587,45.1744204 25.2574476,47.725792 25.2574476,50.9824292 L25.2574476,52.1924735 C25.2574476,53.7108805 24.0251937,54.9463673 22.5084952,54.9463673 C20.9928127,54.9463673 19.758527,53.7108805 19.758527,52.1924735 L19.758527,49.7662788 C19.758527,46.5635796 17.1578921,43.9582699 13.9609397,43.9582699 C11.1236063,43.9582699 8.7576381,46.010969 8.26087619,48.7119425 C8.19890794,48.6234027 8.13389206,48.5368982 8.07293968,48.4473407 C7.76208254,47.9934469 7.46138413,47.5334469 7.17795556,47.0642876 C7.06011429,46.8688894 6.94938413,46.667385 6.83560635,46.4689336 C6.62430476,46.0995088 6.42113016,45.7249956 6.22608254,45.3464115 C6.12754286,45.1550841 6.02595556,44.9647743 5.93147937,44.7703938 C5.67751111,44.2483142 5.4408127,43.7191106 5.22036825,43.1827832 C5.14519365,43.0016327 5.07509841,42.8184469 5.0039873,42.6352611 C4.81503492,42.1498186 4.63725714,41.6592876 4.47573333,41.1636681 C4.4391619,41.0517212 4.39751111,40.940792 4.36195556,40.8268097 C4.17401905,40.2284027 4.01046349,39.621854 3.86214603,39.0102168 C3.8255746,38.8575619 3.79001905,38.7028717 3.75547937,38.5481814 C3.61833651,37.9385796 3.49541587,37.3259248 3.39789206,36.706146 C3.39382857,36.6796858 3.38874921,36.6542434 3.38468571,36.6277832 C3.28513016,35.9835796 3.21503492,35.3332699 3.1591619,34.6799071 C3.14595556,34.5241991 3.13478095,34.3674735 3.12360635,34.2107478 C3.07890794,33.5533142 3.04741587,32.8918097 3.04741587,32.2272522 C3.04741587,16.3898186 15.9093841,3.50473009 31.7194159,3.50473009 M54.1956063,54.6247743 C60.1547175,48.6284912 63.438019,40.7026504 63.438019,32.2272522 C63.438019,14.7065442 49.2086857,0.451632743 31.7194159,0.451632743 C14.2291302,0.451632743 -0.000203174603,14.7065442 -0.000203174603,32.2272522 C-0.000203174603,32.7534027 0.0140190476,33.2765 0.039415873,33.7985796 C0.0485587302,33.9827832 0.0668444444,34.1649513 0.0790349206,34.3491549 C0.100368254,34.6839779 0.12271746,35.0188009 0.155225397,35.3515885 C0.17655873,35.5683584 0.206019048,35.7830929 0.231415873,35.9988451 C0.266971429,36.297031 0.300495238,36.5941991 0.344177778,36.8903496 C0.376685714,37.112208 0.416304762,37.3310133 0.453892063,37.551854 C0.502653968,37.8408805 0.552431746,38.1309248 0.609320635,38.4179159 C0.650971429,38.630615 0.69871746,38.8412788 0.744431746,39.0529602 C0.809447619,39.3470752 0.875479365,39.6411903 0.948622222,39.9332699 C0.997384127,40.1286681 1.04919365,40.3230487 1.10201905,40.5164115 C1.18532063,40.825792 1.27166984,41.1341549 1.36411429,41.4404823 C1.41592381,41.6104381 1.46976508,41.7783584 1.52360635,41.9472965 C1.62925714,42.277031 1.7399873,42.6057478 1.8568127,42.9324292 C1.90760635,43.0728717 1.9584,43.2133142 2.0112254,43.3527389 C2.14328889,43.7079159 2.28246349,44.0600398 2.42773333,44.4101283 C2.47243175,44.515969 2.51611429,44.6228274 2.56182857,44.7286681 C2.72538413,45.1103053 2.89605079,45.4878717 3.07484444,45.8634027 C3.10938413,45.9356593 3.14392381,46.0089336 3.17846349,46.0811903 C3.37452698,46.4862345 3.57973333,46.8861903 3.79408254,47.2830929 C3.81643175,47.3248186 3.83776508,47.3665442 3.86113016,47.4082699 C4.09173333,47.8316327 4.33249524,48.2509248 4.5824,48.6641106 C4.59052698,48.6783584 4.59966984,48.6926062 4.60779683,48.706854 C5.7232254,50.5427832 7.02354286,52.2789779 8.5128127,53.8808363 C8.54024127,53.9103496 8.57478095,53.9276504 8.60424127,53.9541106 C14.3947175,60.1335796 22.6121143,64.0038894 31.7194159,64.0038894 C40.2293841,64.0038894 47.9622095,60.6220752 53.6643048,55.1376947 C53.6998603,55.1091991 53.7394794,55.0868097 53.7730032,55.0552611 C53.8877968,54.9443319 53.9944635,54.8272965 54.1072254,54.7143319 C54.1366857,54.6848186 54.166146,54.6542876 54.1956063,54.6247743" id="Fill-7" fill="#2E2E30"/>
                <path d="M31.7192127,24.7623274 C35.828419,24.7623274 39.1706413,28.1115752 39.1706413,32.2271504 C39.1706413,36.3437434 35.828419,39.6919735 31.7192127,39.6919735 C27.6100063,39.6919735 24.2667683,36.3437434 24.2667683,32.2271504 C24.2667683,28.1115752 27.6100063,24.7623274 31.7192127,24.7623274 M31.7192127,42.7450708 C37.5076571,42.7450708 42.2182603,38.0270177 42.2182603,32.2271504 C42.2182603,26.4272832 37.5076571,21.7092301 31.7192127,21.7092301 C25.9297524,21.7092301 21.2191492,26.4272832 21.2191492,32.2271504 C21.2191492,38.0270177 25.9297524,42.7450708 31.7192127,42.7450708" id="Fill-10" fill="#2E2E30"/>
                <path d="M22.1428825,47.9035841 C21.9011048,47.9035841 21.6562794,47.8455752 21.4277079,47.724469 C20.6840889,47.3285841 20.4037079,46.4034956 20.7988825,45.6595575 L22.4923429,42.4731416 C22.8875175,41.7281858 23.8129778,41.4493363 24.5535492,41.8431858 C25.2961524,42.2400885 25.5775492,43.1641593 25.1823746,43.9080973 L23.4889143,47.0945133 C23.2156444,47.6104867 22.6873905,47.9035841 22.1428825,47.9035841" id="Fill-12" fill="#FEFEFE"/>
                <path d="M45.1915175,27.7349248 C45.0482794,27.7349248 44.9040254,27.7145708 44.7597714,27.6718274 C43.9521524,27.4336858 43.490946,26.5849248 43.7296762,25.775854 L44.747581,22.3136416 C44.9863111,21.5045708 45.8345651,21.0455885 46.6401524,21.280677 C47.4477714,21.5198363 47.9089778,22.3685973 47.6702476,23.1766504 L46.651327,26.6398805 C46.4562794,27.3044381 45.8487873,27.7349248 45.1915175,27.7349248" id="Fill-14" fill="#FEFEFE"/>
                <path d="M39.5366603,48.8477035 L39.5173587,48.8477035 C38.6762159,48.8365088 38.0026921,48.1454912 38.0128508,47.3018186 L38.0575492,43.6920398 C38.0687238,42.8544735 38.7483429,42.1838097 39.5813587,42.1838097 L39.5996444,42.1838097 C40.4418032,42.1950044 41.115327,42.8870398 41.1051683,43.7296947 L41.0604698,47.3404912 C41.0492952,48.1770398 40.3696762,48.8477035 39.5366603,48.8477035" id="Fill-16" fill="#FEFEFE"/>
                <path d="M54.5842794,41.8778894 C54.1332317,41.8778894 53.6862476,41.6784204 53.3855492,41.2947478 L51.1577397,38.456385 C50.6365968,37.7938628 50.7524063,36.8341726 51.4137397,36.3131106 C52.0740571,35.791031 53.0330413,35.9070487 53.5521524,36.5695708 L55.7809778,39.4079336 C56.3011048,40.0704558 56.1863111,41.030146 55.5249778,41.551208 C55.2456127,41.7720487 54.9134222,41.8778894 54.5842794,41.8778894" id="Fill-18" fill="#FEFEFE"/>
                <path d="M48.232127,34.1039912 C47.4326349,34.1039912 46.7611429,33.4801416 46.712381,32.6690354 C46.6605714,31.8284159 47.3005714,31.1038142 48.1406984,31.0529292 L51.7379048,30.8351416 C52.5942857,30.7720442 53.3003175,31.4243894 53.3511111,32.2660265 C53.4029206,33.1076637 52.7629206,33.8302301 51.9227937,33.8821327 L48.3255873,34.1009381 C48.2940952,34.1029735 48.2626032,34.1039912 48.232127,34.1039912" id="Fill-20" fill="#FEFEFE"/>
                <path d="M36.1904762,20.5916947 C35.9486984,20.5916947 35.703873,20.5336858 35.4753016,20.4125796 C34.7316825,20.0166947 34.4513016,19.0916062 34.8464762,18.3476681 L36.5399365,15.1602345 C36.9351111,14.4152788 37.8605714,14.1333761 38.6011429,14.5292611 C39.343746,14.9261637 39.6251429,15.8502345 39.2299683,16.5941726 L37.5365079,19.7816062 C37.2632381,20.2975796 36.7349841,20.5916947 36.1904762,20.5916947" id="Fill-22" fill="#FEFEFE"/>
                <path d="M54.7390984,29.2048894 C54.4973206,29.2048894 54.2524952,29.1468805 54.0239238,29.0257743 C53.2803048,28.6288717 52.9999238,27.7048009 53.3950984,26.9598451 L55.0885587,23.7734292 C55.4837333,23.0294912 56.4091937,22.7475885 57.1497651,23.1434735 C57.8923683,23.5403761 58.1737651,24.4644469 57.7785905,25.208385 L56.0851302,28.3958186 C55.8118603,28.9107743 55.2836063,29.2048894 54.7390984,29.2048894" id="Fill-24" fill="#FEFEFE"/>
                <path d="M51.6219937,20.4415841 C51.3802159,20.4415841 51.1353905,20.3835752 50.906819,20.262469 L47.7251048,18.5659646 C46.9835175,18.1700796 46.7011048,17.2460088 47.0962794,16.5010531 C47.4924698,15.7560973 48.4158984,15.4752124 49.1574857,15.8710973 L52.3392,17.5665841 C53.0818032,17.962469 53.3632,18.8875575 52.9680254,19.6314956 C52.6947556,20.147469 52.1665016,20.4415841 51.6219937,20.4415841" id="Fill-26" fill="#FEFEFE"/>
                <path d="M46.7797333,40.9884204 C46.5379556,40.9884204 46.2931302,40.9304115 46.0645587,40.8093053 L42.8838603,39.1128009 C42.1412571,38.7169159 41.8598603,37.7918274 42.2550349,37.0478894 C42.6512254,36.3029336 43.5756698,36.0230664 44.3162413,36.4179336 L47.4969397,38.1144381 C48.2395429,38.510323 48.5209397,39.4354115 48.1257651,40.1793496 C47.8524952,40.695323 47.3242413,40.9884204 46.7797333,40.9884204" id="Fill-28" fill="#FEFEFE"/>
                <path d="M42.1776254,12.2796372 C41.7042286,12.2796372 41.2379429,12.0598142 40.9402921,11.6456106 L38.8323556,8.71769027 C38.340673,8.03379646 38.4940698,7.08021239 39.1777524,6.58662832 C39.8573714,6.09304425 40.8112762,6.24671681 41.3049905,6.93162832 L43.412927,9.86056637 C43.9046095,10.5434425 43.7512127,11.4980442 43.0675302,11.9916283 C42.7983238,12.1860088 42.4874667,12.2796372 42.1776254,12.2796372" id="Fill-30" fill="#FEFEFE"/>
                <path d="M31.7351619,14.006469 C31.5868444,14.006469 31.4375111,13.9850973 31.2891937,13.9393009 C30.4846222,13.6930177 30.030527,12.8401858 30.2763683,12.0341681 L31.3298286,8.58009735 C31.574654,7.77306195 32.4259556,7.32120354 33.2325587,7.56646903 C34.0371302,7.81275221 34.4902095,8.66558407 34.2443683,9.47160177 L33.1919238,12.9256726 C32.990781,13.5831062 32.3873524,14.006469 31.7351619,14.006469" id="Fill-32" fill="#FEFEFE"/>
                <path d="M16.9246476,33.5951416 C16.2673778,33.5951416 15.6598857,33.1646549 15.4648381,32.4990796 L14.4459175,29.0368673 C14.2071873,28.2277965 14.6683937,27.3790354 15.4760127,27.1408938 C16.2805841,26.9037699 17.129854,27.3637699 17.3685841,28.1738584 L18.3864889,31.6370885 C18.625219,32.4451416 18.1640127,33.2939027 17.3563937,33.5320442 C17.2121397,33.5747876 17.0678857,33.5951416 16.9246476,33.5951416" id="Fill-34" fill="#FEFEFE"/>
                <path d="M16.2440127,42.1293628 C15.9148698,42.1293628 15.5826794,42.0235221 15.3022984,41.8026814 C14.641981,41.2816195 14.5271873,40.3219292 15.0473143,39.6583894 L17.2761397,36.8210442 C17.7962667,36.1605575 18.7522032,36.0435221 19.4155683,36.5656018 C20.0758857,37.0866637 20.1916952,38.046354 19.6705524,38.7098938 L17.4427429,41.5472389 C17.1420444,41.9298938 16.6950603,42.1293628 16.2440127,42.1293628" id="Fill-36" fill="#FEFEFE"/>
                <path d="M19.639873,26.0026991 C18.8190476,26.0026991 18.1414603,25.3483186 18.1180952,24.5209292 L18.0104127,20.9131858 C17.9850159,20.070531 18.6463492,19.3673009 19.4885079,19.3418584 C20.3113651,19.3225221 21.0326349,19.9799558 21.0570159,20.8226106 L21.1636825,24.4313717 C21.1890794,25.2740265 20.527746,25.9772566 19.6866032,26.0026991 L19.639873,26.0026991" id="Fill-38" fill="#FEFEFE"/>
                <path d="M27.4345651,20.2826195 C26.8900571,20.2826195 26.3618032,19.9885044 26.0885333,19.4735487 L24.395073,16.286115 C23.9998984,15.542177 24.2812952,14.6181062 25.0238984,14.2212035 C25.7644698,13.8253186 26.6899302,14.1062035 27.0851048,14.8511593 L28.7785651,18.0375752 C29.1737397,18.782531 28.8933587,19.7066018 28.1497397,20.1035044 C27.9211683,20.2246106 27.6763429,20.2826195 27.4345651,20.2826195" id="Fill-40" fill="#FEFEFE"/>
                <path d="M10.0714667,28.4842566 C9.52695873,28.4842566 8.99870476,28.1901416 8.72543492,27.6741681 L7.0319746,24.4867345 C6.6368,23.7427965 6.91819683,22.8187257 7.6608,22.421823 C8.40035556,22.0249204 9.32683175,22.3078407 9.72200635,23.0527965 L11.4154667,26.2402301 C11.8106413,26.9841681 11.5302603,27.9092566 10.7866413,28.3051416 C10.5580698,28.4262478 10.3132444,28.4842566 10.0714667,28.4842566" id="Fill-42" fill="#FEFEFE"/>
                <path d="M13.8015492,18.252615 C13.2570413,18.252615 12.7287873,17.9585 12.4555175,17.4425265 C12.0603429,16.6985885 12.3417397,15.7735 13.0843429,15.377615 L16.2660571,13.6821283 C17.0066286,13.2852257 17.9300571,13.5671283 18.3272635,14.3120841 C18.7224381,15.0570398 18.4400254,15.9811106 17.6984381,16.3769956 L14.5167238,18.0735 C14.2881524,18.1946062 14.043327,18.252615 13.8015492,18.252615" id="Fill-44" fill="#FEFEFE"/>
                <path d="M7.63387937,37.6848673 C7.08937143,37.6848673 6.56111746,37.3917699 6.28784762,36.8757965 C5.89267302,36.1318584 6.17406984,35.2067699 6.91667302,34.810885 L10.0983873,33.1143805 C10.8379429,32.7184956 11.7634032,32.9993805 12.1595937,33.7443363 C12.5547683,34.4882743 12.2733714,35.4133628 11.5307683,35.8092478 L8.34905397,37.5057522 C8.12048254,37.6268584 7.87565714,37.6848673 7.63387937,37.6848673" id="Fill-46" fill="#FEFEFE"/>
                <path d="M20.8809651,12.2796372 C20.5711238,12.2796372 20.2602667,12.1860088 19.9910603,11.9916283 C19.3073778,11.4980442 19.153981,10.5434425 19.6456635,9.86056637 L21.7536,6.93162832 C22.2462984,6.24671681 23.2002032,6.09304425 23.8808381,6.58662832 C24.5645206,7.08021239 24.7179175,8.03379646 24.2262349,8.71769027 L22.1182984,11.6456106 C21.8206476,12.0598142 21.3543619,12.2796372 20.8809651,12.2796372" id="Fill-48" fill="#FEFEFE"/>
            </g>
        </g>
    </g>

	
	
	<metadata>
		<rdf:RDF xmlns:rdf="http://www.w3.org/1999/02/22-rdf-syntax-ns#" xmlns:rdfs="http://www.w3.org/2000/01/rdf-schema#" xmlns:dc="http://purl.org/dc/elements/1.1/">
			<rdf:Description about="https://iconscout.com/legal#licenses" dc:title="Donut, Sweet, Desert, Food, Bakery" dc:description="Donut, Sweet, Desert, Food, Bakery" dc:publisher="Iconscout" dc:date="2016-12-14" dc:format="image/svg+xml" dc:language="en">
				<dc:creator>
					<rdf:Bag>
						<rdf:li>AomAm .</rdf:li>
					</rdf:Bag>
				</dc:creator>
			</rdf:Description>
		</rdf:RDF>
    </metadata></svg>
